<?xml version="1.0" encoding="UTF-8"?>
<svg xmlns="http://www.w3.org/2000/svg" xmlns:xlink="http://www.w3.org/1999/xlink" width="1080" height="1920" viewBox="0 0 1080 1920">
<defs>
<g>
<g id="glyph-0-0">
<path d="M 2.25 0.09375 C 1.695312 0.09375 1.253906 -0.117188 0.921875 -0.546875 C 0.585938 -0.972656 0.421875 -1.59375 0.421875 -2.40625 C 0.421875 -3.207031 0.585938 -3.816406 0.921875 -4.234375 C 1.253906 -4.648438 1.695312 -4.859375 2.25 -4.859375 C 2.800781 -4.859375 3.242188 -4.648438 3.578125 -4.234375 C 3.910156 -3.816406 4.078125 -3.207031 4.078125 -2.40625 C 4.078125 -1.59375 3.910156 -0.972656 3.578125 -0.546875 C 3.242188 -0.117188 2.800781 0.09375 2.25 0.09375 Z M 2.25 -0.765625 C 2.40625 -0.765625 2.546875 -0.8125 2.671875 -0.90625 C 2.804688 -1.007812 2.910156 -1.179688 2.984375 -1.421875 C 3.054688 -1.660156 3.09375 -1.988281 3.09375 -2.40625 C 3.09375 -2.8125 3.054688 -3.128906 2.984375 -3.359375 C 2.910156 -3.597656 2.804688 -3.765625 2.671875 -3.859375 C 2.546875 -3.953125 2.40625 -4 2.25 -4 C 2.09375 -4 1.945312 -3.953125 1.8125 -3.859375 C 1.6875 -3.765625 1.585938 -3.597656 1.515625 -3.359375 C 1.441406 -3.128906 1.40625 -2.8125 1.40625 -2.40625 C 1.40625 -1.988281 1.441406 -1.660156 1.515625 -1.421875 C 1.585938 -1.179688 1.6875 -1.007812 1.8125 -0.90625 C 1.945312 -0.8125 2.09375 -0.765625 2.25 -0.765625 Z M 2.25 -1.84375 C 2.09375 -1.84375 1.957031 -1.894531 1.84375 -2 C 1.738281 -2.101562 1.6875 -2.242188 1.6875 -2.421875 C 1.6875 -2.585938 1.738281 -2.722656 1.84375 -2.828125 C 1.957031 -2.929688 2.09375 -2.984375 2.25 -2.984375 C 2.40625 -2.984375 2.535156 -2.929688 2.640625 -2.828125 C 2.753906 -2.722656 2.8125 -2.585938 2.8125 -2.421875 C 2.8125 -2.242188 2.753906 -2.101562 2.640625 -2 C 2.535156 -1.894531 2.40625 -1.84375 2.25 -1.84375 Z "/>
</g>
<g id="glyph-0-1">
<path d="M 0.59375 0 L 0.59375 -0.890625 L 1.875 -0.890625 L 1.875 -3.640625 L 0.8125 -3.640625 L 0.8125 -4.328125 C 1.144531 -4.378906 1.40625 -4.4375 1.59375 -4.5 C 1.789062 -4.5625 1.984375 -4.648438 2.171875 -4.765625 L 2.984375 -4.765625 L 2.984375 -0.890625 L 4.0625 -0.890625 L 4.0625 0 Z "/>
</g>
</g>
</defs>
<g fill="rgb(87.45098%, 100%, 0%)" fill-opacity="1">
<use xlink:href="#glyph-0-0" x="30" y="27.379883"/>
<use xlink:href="#glyph-0-1" x="35" y="27.379883"/>
</g>
</svg>
