<?xml version="1.0" encoding="UTF-8"?>
<svg xmlns="http://www.w3.org/2000/svg" xmlns:xlink="http://www.w3.org/1999/xlink" width="1080" height="1920" viewBox="0 0 1080 1920">
<defs>
<g>
<g id="glyph-0-0">
<path d="M 0.890625 -6.421875 C 0.828125 -6.648438 0.734375 -6.800781 0.609375 -6.875 C 0.492188 -6.945312 0.335938 -6.984375 0.140625 -6.984375 L 0 -6.984375 L 0 -7.546875 L 3.53125 -7.546875 L 3.53125 -6.984375 L 3.28125 -6.984375 C 2.863281 -6.984375 2.65625 -6.8125 2.65625 -6.46875 C 2.65625 -6.414062 2.664062 -6.332031 2.6875 -6.21875 C 2.707031 -6.101562 2.726562 -6 2.75 -5.90625 L 3.46875 -3.46875 C 3.519531 -3.289062 3.570312 -3.09375 3.625 -2.875 C 3.6875 -2.664062 3.738281 -2.457031 3.78125 -2.25 C 3.832031 -2.039062 3.863281 -1.859375 3.875 -1.703125 C 3.925781 -1.921875 3.976562 -2.128906 4.03125 -2.328125 C 4.09375 -2.535156 4.15625 -2.742188 4.21875 -2.953125 L 5.609375 -7.46875 L 6.375 -7.46875 L 7.84375 -3.4375 C 7.957031 -3.101562 8.0625 -2.769531 8.15625 -2.4375 C 8.25 -2.113281 8.316406 -1.859375 8.359375 -1.671875 C 8.410156 -1.929688 8.472656 -2.238281 8.546875 -2.59375 C 8.617188 -2.945312 8.695312 -3.296875 8.78125 -3.640625 L 9.34375 -5.921875 C 9.363281 -6.003906 9.382812 -6.101562 9.40625 -6.21875 C 9.425781 -6.34375 9.4375 -6.429688 9.4375 -6.484375 C 9.4375 -6.671875 9.378906 -6.800781 9.265625 -6.875 C 9.160156 -6.945312 8.988281 -6.984375 8.75 -6.984375 L 8.515625 -6.984375 L 8.515625 -7.546875 L 11.265625 -7.546875 L 11.265625 -6.984375 L 11.0625 -6.984375 C 10.863281 -6.984375 10.707031 -6.929688 10.59375 -6.828125 C 10.476562 -6.734375 10.367188 -6.507812 10.265625 -6.15625 L 8.625 0 L 7.421875 0 L 5.65625 -4.953125 L 4.125 0 L 2.8125 0 Z "/>
</g>
<g id="glyph-0-1">
<path d="M 0.046875 0 L 0.046875 -0.5625 L 0.171875 -0.5625 C 0.359375 -0.5625 0.515625 -0.609375 0.640625 -0.703125 C 0.773438 -0.804688 0.898438 -1.015625 1.015625 -1.328125 L 3.3125 -7.546875 L 4.75 -7.546875 L 6.953125 -1.3125 C 7.066406 -1.019531 7.1875 -0.820312 7.3125 -0.71875 C 7.445312 -0.613281 7.597656 -0.5625 7.765625 -0.5625 L 7.953125 -0.5625 L 7.953125 0 L 4.46875 0 L 4.46875 -0.5625 L 4.875 -0.5625 C 4.976562 -0.5625 5.078125 -0.59375 5.171875 -0.65625 C 5.273438 -0.71875 5.328125 -0.820312 5.328125 -0.96875 C 5.328125 -1.050781 5.316406 -1.132812 5.296875 -1.21875 C 5.273438 -1.300781 5.253906 -1.367188 5.234375 -1.421875 L 4.875 -2.484375 L 2.296875 -2.484375 L 2 -1.578125 C 1.96875 -1.492188 1.9375 -1.390625 1.90625 -1.265625 C 1.882812 -1.148438 1.875 -1.050781 1.875 -0.96875 C 1.875 -0.832031 1.921875 -0.726562 2.015625 -0.65625 C 2.117188 -0.59375 2.226562 -0.5625 2.34375 -0.5625 L 2.78125 -0.5625 L 2.78125 0 Z M 2.53125 -3.125 L 4.65625 -3.125 L 4.09375 -4.859375 C 4.03125 -5.097656 3.953125 -5.363281 3.859375 -5.65625 C 3.773438 -5.957031 3.703125 -6.226562 3.640625 -6.46875 C 3.578125 -6.25 3.5 -5.992188 3.40625 -5.703125 C 3.320312 -5.421875 3.234375 -5.15625 3.140625 -4.90625 Z "/>
</g>
<g id="glyph-0-2">
<path d="M 0.296875 0 L 0.296875 -0.5625 L 0.734375 -0.5625 C 0.890625 -0.5625 1.019531 -0.597656 1.125 -0.671875 C 1.226562 -0.753906 1.28125 -0.945312 1.28125 -1.25 L 1.28125 -6.296875 C 1.28125 -6.597656 1.226562 -6.785156 1.125 -6.859375 C 1.019531 -6.941406 0.890625 -6.984375 0.734375 -6.984375 L 0.296875 -6.984375 L 0.296875 -7.546875 L 3.9375 -7.546875 L 3.9375 -6.984375 L 3.5 -6.984375 C 3.351562 -6.984375 3.222656 -6.945312 3.109375 -6.875 C 3.003906 -6.800781 2.953125 -6.625 2.953125 -6.34375 L 2.953125 -0.640625 L 4.921875 -0.640625 C 5.171875 -0.640625 5.363281 -0.71875 5.5 -0.875 C 5.632812 -1.039062 5.734375 -1.269531 5.796875 -1.5625 L 5.96875 -2.359375 L 6.5625 -2.359375 L 6.484375 0 Z "/>
</g>
</g>
</defs>
<g fill="rgb(100%, 81.960784%, 40%)" fill-opacity="1">
<use xlink:href="#glyph-0-0" x="30" y="31.28418"/>
<use xlink:href="#glyph-0-1" x="41" y="31.28418"/>
<use xlink:href="#glyph-0-2" x="49" y="31.28418"/>
</g>
</svg>
